<?xml version="1.0" encoding="utf-8" standalone="no"?>
<!DOCTYPE svg PUBLIC "-//W3C//DTD SVG 1.1//EN"
  "http://www.w3.org/Graphics/SVG/1.1/DTD/svg11.dtd">
<svg xmlns:xlink="http://www.w3.org/1999/xlink" width="460.8pt" height="345.6pt" viewBox="0 0 460.8 345.6" xmlns="http://www.w3.org/2000/svg" version="1.1">
 <metadata>
  <rdf:RDF xmlns:dc="http://purl.org/dc/elements/1.1/" xmlns:cc="http://creativecommons.org/ns#" xmlns:rdf="http://www.w3.org/1999/02/22-rdf-syntax-ns#">
   <cc:Work>
    <dc:type rdf:resource="http://purl.org/dc/dcmitype/StillImage"/>
    <dc:date>2024-10-06T20:34:45.156638</dc:date>
    <dc:format>image/svg+xml</dc:format>
    <dc:creator>
     <cc:Agent>
      <dc:title>Matplotlib v3.9.2, https://matplotlib.org/</dc:title>
     </cc:Agent>
    </dc:creator>
   </cc:Work>
  </rdf:RDF>
 </metadata>
 <defs>
  <style type="text/css">*{stroke-linejoin: round; stroke-linecap: butt}</style>
 </defs>
 <g id="figure_1">
  <g id="patch_1">
   <path d="M 0 345.6 
L 460.8 345.6 
L 460.8 0 
L 0 0 
z
" style="fill: #ffffff"/>
  </g>
  <g id="axes_1">
   <g id="patch_2">
    <path d="M 57.6 307.584 
L 414.72 307.584 
L 414.72 41.472 
L 57.6 41.472 
z
" style="fill: #ffffff"/>
   </g>
   <g id="matplotlib.axis_1">
    <g id="xtick_1">
     <g id="line2d_1">
      <path d="M 73.20233 307.584 
L 73.20233 41.472 
" clip-path="url(#p2223764749)" style="fill: none; stroke: #b0b0b0; stroke-width: 0.8; stroke-linecap: square"/>
     </g>
     <g id="line2d_2">
      <defs>
       <path id="ma40379a2f1" d="M 0 0 
L 0 3.5 
" style="stroke: #000000; stroke-width: 0.8"/>
      </defs>
      <g>
       <use xlink:href="#ma40379a2f1" x="73.20233" y="307.584" style="stroke: #000000; stroke-width: 0.8"/>
      </g>
     </g>
     <g id="text_1">
      <!-- 0 -->
      <g transform="translate(70.02108 322.182437) scale(0.1 -0.1)">
       <defs>
        <path id="DejaVuSans-30" d="M 2034 4250 
Q 1547 4250 1301 3770 
Q 1056 3291 1056 2328 
Q 1056 1369 1301 889 
Q 1547 409 2034 409 
Q 2525 409 2770 889 
Q 3016 1369 3016 2328 
Q 3016 3291 2770 3770 
Q 2525 4250 2034 4250 
z
M 2034 4750 
Q 2819 4750 3233 4129 
Q 3647 3509 3647 2328 
Q 3647 1150 3233 529 
Q 2819 -91 2034 -91 
Q 1250 -91 836 529 
Q 422 1150 422 2328 
Q 422 3509 836 4129 
Q 1250 4750 2034 4750 
z
" transform="scale(0.015625)"/>
       </defs>
       <use xlink:href="#DejaVuSans-30"/>
      </g>
     </g>
    </g>
    <g id="xtick_2">
     <g id="line2d_3">
      <path d="M 136.242048 307.584 
L 136.242048 41.472 
" clip-path="url(#p2223764749)" style="fill: none; stroke: #b0b0b0; stroke-width: 0.8; stroke-linecap: square"/>
     </g>
     <g id="line2d_4">
      <g>
       <use xlink:href="#ma40379a2f1" x="136.242048" y="307.584" style="stroke: #000000; stroke-width: 0.8"/>
      </g>
     </g>
     <g id="text_2">
      <!-- 200 -->
      <g transform="translate(126.698298 322.182437) scale(0.1 -0.1)">
       <defs>
        <path id="DejaVuSans-32" d="M 1228 531 
L 3431 531 
L 3431 0 
L 469 0 
L 469 531 
Q 828 903 1448 1529 
Q 2069 2156 2228 2338 
Q 2531 2678 2651 2914 
Q 2772 3150 2772 3378 
Q 2772 3750 2511 3984 
Q 2250 4219 1831 4219 
Q 1534 4219 1204 4116 
Q 875 4013 500 3803 
L 500 4441 
Q 881 4594 1212 4672 
Q 1544 4750 1819 4750 
Q 2544 4750 2975 4387 
Q 3406 4025 3406 3419 
Q 3406 3131 3298 2873 
Q 3191 2616 2906 2266 
Q 2828 2175 2409 1742 
Q 1991 1309 1228 531 
z
" transform="scale(0.015625)"/>
       </defs>
       <use xlink:href="#DejaVuSans-32"/>
       <use xlink:href="#DejaVuSans-30" x="63.623047"/>
       <use xlink:href="#DejaVuSans-30" x="127.246094"/>
      </g>
     </g>
    </g>
    <g id="xtick_3">
     <g id="line2d_5">
      <path d="M 199.281765 307.584 
L 199.281765 41.472 
" clip-path="url(#p2223764749)" style="fill: none; stroke: #b0b0b0; stroke-width: 0.8; stroke-linecap: square"/>
     </g>
     <g id="line2d_6">
      <g>
       <use xlink:href="#ma40379a2f1" x="199.281765" y="307.584" style="stroke: #000000; stroke-width: 0.8"/>
      </g>
     </g>
     <g id="text_3">
      <!-- 400 -->
      <g transform="translate(189.738015 322.182437) scale(0.1 -0.1)">
       <defs>
        <path id="DejaVuSans-34" d="M 2419 4116 
L 825 1625 
L 2419 1625 
L 2419 4116 
z
M 2253 4666 
L 3047 4666 
L 3047 1625 
L 3713 1625 
L 3713 1100 
L 3047 1100 
L 3047 0 
L 2419 0 
L 2419 1100 
L 313 1100 
L 313 1709 
L 2253 4666 
z
" transform="scale(0.015625)"/>
       </defs>
       <use xlink:href="#DejaVuSans-34"/>
       <use xlink:href="#DejaVuSans-30" x="63.623047"/>
       <use xlink:href="#DejaVuSans-30" x="127.246094"/>
      </g>
     </g>
    </g>
    <g id="xtick_4">
     <g id="line2d_7">
      <path d="M 262.321483 307.584 
L 262.321483 41.472 
" clip-path="url(#p2223764749)" style="fill: none; stroke: #b0b0b0; stroke-width: 0.8; stroke-linecap: square"/>
     </g>
     <g id="line2d_8">
      <g>
       <use xlink:href="#ma40379a2f1" x="262.321483" y="307.584" style="stroke: #000000; stroke-width: 0.8"/>
      </g>
     </g>
     <g id="text_4">
      <!-- 600 -->
      <g transform="translate(252.777733 322.182437) scale(0.1 -0.1)">
       <defs>
        <path id="DejaVuSans-36" d="M 2113 2584 
Q 1688 2584 1439 2293 
Q 1191 2003 1191 1497 
Q 1191 994 1439 701 
Q 1688 409 2113 409 
Q 2538 409 2786 701 
Q 3034 994 3034 1497 
Q 3034 2003 2786 2293 
Q 2538 2584 2113 2584 
z
M 3366 4563 
L 3366 3988 
Q 3128 4100 2886 4159 
Q 2644 4219 2406 4219 
Q 1781 4219 1451 3797 
Q 1122 3375 1075 2522 
Q 1259 2794 1537 2939 
Q 1816 3084 2150 3084 
Q 2853 3084 3261 2657 
Q 3669 2231 3669 1497 
Q 3669 778 3244 343 
Q 2819 -91 2113 -91 
Q 1303 -91 875 529 
Q 447 1150 447 2328 
Q 447 3434 972 4092 
Q 1497 4750 2381 4750 
Q 2619 4750 2861 4703 
Q 3103 4656 3366 4563 
z
" transform="scale(0.015625)"/>
       </defs>
       <use xlink:href="#DejaVuSans-36"/>
       <use xlink:href="#DejaVuSans-30" x="63.623047"/>
       <use xlink:href="#DejaVuSans-30" x="127.246094"/>
      </g>
     </g>
    </g>
    <g id="xtick_5">
     <g id="line2d_9">
      <path d="M 325.3612 307.584 
L 325.3612 41.472 
" clip-path="url(#p2223764749)" style="fill: none; stroke: #b0b0b0; stroke-width: 0.8; stroke-linecap: square"/>
     </g>
     <g id="line2d_10">
      <g>
       <use xlink:href="#ma40379a2f1" x="325.3612" y="307.584" style="stroke: #000000; stroke-width: 0.8"/>
      </g>
     </g>
     <g id="text_5">
      <!-- 800 -->
      <g transform="translate(315.81745 322.182437) scale(0.1 -0.1)">
       <defs>
        <path id="DejaVuSans-38" d="M 2034 2216 
Q 1584 2216 1326 1975 
Q 1069 1734 1069 1313 
Q 1069 891 1326 650 
Q 1584 409 2034 409 
Q 2484 409 2743 651 
Q 3003 894 3003 1313 
Q 3003 1734 2745 1975 
Q 2488 2216 2034 2216 
z
M 1403 2484 
Q 997 2584 770 2862 
Q 544 3141 544 3541 
Q 544 4100 942 4425 
Q 1341 4750 2034 4750 
Q 2731 4750 3128 4425 
Q 3525 4100 3525 3541 
Q 3525 3141 3298 2862 
Q 3072 2584 2669 2484 
Q 3125 2378 3379 2068 
Q 3634 1759 3634 1313 
Q 3634 634 3220 271 
Q 2806 -91 2034 -91 
Q 1263 -91 848 271 
Q 434 634 434 1313 
Q 434 1759 690 2068 
Q 947 2378 1403 2484 
z
M 1172 3481 
Q 1172 3119 1398 2916 
Q 1625 2713 2034 2713 
Q 2441 2713 2670 2916 
Q 2900 3119 2900 3481 
Q 2900 3844 2670 4047 
Q 2441 4250 2034 4250 
Q 1625 4250 1398 4047 
Q 1172 3844 1172 3481 
z
" transform="scale(0.015625)"/>
       </defs>
       <use xlink:href="#DejaVuSans-38"/>
       <use xlink:href="#DejaVuSans-30" x="63.623047"/>
       <use xlink:href="#DejaVuSans-30" x="127.246094"/>
      </g>
     </g>
    </g>
    <g id="xtick_6">
     <g id="line2d_11">
      <path d="M 388.400918 307.584 
L 388.400918 41.472 
" clip-path="url(#p2223764749)" style="fill: none; stroke: #b0b0b0; stroke-width: 0.8; stroke-linecap: square"/>
     </g>
     <g id="line2d_12">
      <g>
       <use xlink:href="#ma40379a2f1" x="388.400918" y="307.584" style="stroke: #000000; stroke-width: 0.8"/>
      </g>
     </g>
     <g id="text_6">
      <!-- 1000 -->
      <g transform="translate(375.675918 322.182437) scale(0.1 -0.1)">
       <defs>
        <path id="DejaVuSans-31" d="M 794 531 
L 1825 531 
L 1825 4091 
L 703 3866 
L 703 4441 
L 1819 4666 
L 2450 4666 
L 2450 531 
L 3481 531 
L 3481 0 
L 794 0 
L 794 531 
z
" transform="scale(0.015625)"/>
       </defs>
       <use xlink:href="#DejaVuSans-31"/>
       <use xlink:href="#DejaVuSans-30" x="63.623047"/>
       <use xlink:href="#DejaVuSans-30" x="127.246094"/>
       <use xlink:href="#DejaVuSans-30" x="190.869141"/>
      </g>
     </g>
    </g>
    <g id="text_7">
     <!-- X [CM] -->
     <g transform="translate(219.438906 335.860562) scale(0.1 -0.1)">
      <defs>
       <path id="DejaVuSans-58" d="M 403 4666 
L 1081 4666 
L 2241 2931 
L 3406 4666 
L 4084 4666 
L 2584 2425 
L 4184 0 
L 3506 0 
L 2194 1984 
L 872 0 
L 191 0 
L 1856 2491 
L 403 4666 
z
" transform="scale(0.015625)"/>
       <path id="DejaVuSans-20" transform="scale(0.015625)"/>
       <path id="DejaVuSans-5b" d="M 550 4863 
L 1875 4863 
L 1875 4416 
L 1125 4416 
L 1125 -397 
L 1875 -397 
L 1875 -844 
L 550 -844 
L 550 4863 
z
" transform="scale(0.015625)"/>
       <path id="DejaVuSans-43" d="M 4122 4306 
L 4122 3641 
Q 3803 3938 3442 4084 
Q 3081 4231 2675 4231 
Q 1875 4231 1450 3742 
Q 1025 3253 1025 2328 
Q 1025 1406 1450 917 
Q 1875 428 2675 428 
Q 3081 428 3442 575 
Q 3803 722 4122 1019 
L 4122 359 
Q 3791 134 3420 21 
Q 3050 -91 2638 -91 
Q 1578 -91 968 557 
Q 359 1206 359 2328 
Q 359 3453 968 4101 
Q 1578 4750 2638 4750 
Q 3056 4750 3426 4639 
Q 3797 4528 4122 4306 
z
" transform="scale(0.015625)"/>
       <path id="DejaVuSans-4d" d="M 628 4666 
L 1569 4666 
L 2759 1491 
L 3956 4666 
L 4897 4666 
L 4897 0 
L 4281 0 
L 4281 4097 
L 3078 897 
L 2444 897 
L 1241 4097 
L 1241 0 
L 628 0 
L 628 4666 
z
" transform="scale(0.015625)"/>
       <path id="DejaVuSans-5d" d="M 1947 4863 
L 1947 -844 
L 622 -844 
L 622 -397 
L 1369 -397 
L 1369 4416 
L 622 4416 
L 622 4863 
L 1947 4863 
z
" transform="scale(0.015625)"/>
      </defs>
      <use xlink:href="#DejaVuSans-58"/>
      <use xlink:href="#DejaVuSans-20" x="68.505859"/>
      <use xlink:href="#DejaVuSans-5b" x="100.292969"/>
      <use xlink:href="#DejaVuSans-43" x="139.306641"/>
      <use xlink:href="#DejaVuSans-4d" x="209.130859"/>
      <use xlink:href="#DejaVuSans-5d" x="295.410156"/>
     </g>
    </g>
   </g>
   <g id="matplotlib.axis_2">
    <g id="ytick_1">
     <g id="line2d_13">
      <path d="M 57.6 286.053794 
L 414.72 286.053794 
" clip-path="url(#p2223764749)" style="fill: none; stroke: #b0b0b0; stroke-width: 0.8; stroke-linecap: square"/>
     </g>
     <g id="line2d_14">
      <defs>
       <path id="m9350c36aa6" d="M 0 0 
L -3.5 0 
" style="stroke: #000000; stroke-width: 0.8"/>
      </defs>
      <g>
       <use xlink:href="#m9350c36aa6" x="57.6" y="286.053794" style="stroke: #000000; stroke-width: 0.8"/>
      </g>
     </g>
     <g id="text_8">
      <!-- 0 -->
      <g transform="translate(44.2375 289.853013) scale(0.1 -0.1)">
       <use xlink:href="#DejaVuSans-30"/>
      </g>
     </g>
    </g>
    <g id="ytick_2">
     <g id="line2d_15">
      <path d="M 57.6 241.129003 
L 414.72 241.129003 
" clip-path="url(#p2223764749)" style="fill: none; stroke: #b0b0b0; stroke-width: 0.8; stroke-linecap: square"/>
     </g>
     <g id="line2d_16">
      <g>
       <use xlink:href="#m9350c36aa6" x="57.6" y="241.129003" style="stroke: #000000; stroke-width: 0.8"/>
      </g>
     </g>
     <g id="text_9">
      <!-- 200 -->
      <g transform="translate(31.5125 244.928222) scale(0.1 -0.1)">
       <use xlink:href="#DejaVuSans-32"/>
       <use xlink:href="#DejaVuSans-30" x="63.623047"/>
       <use xlink:href="#DejaVuSans-30" x="127.246094"/>
      </g>
     </g>
    </g>
    <g id="ytick_3">
     <g id="line2d_17">
      <path d="M 57.6 196.204212 
L 414.72 196.204212 
" clip-path="url(#p2223764749)" style="fill: none; stroke: #b0b0b0; stroke-width: 0.8; stroke-linecap: square"/>
     </g>
     <g id="line2d_18">
      <g>
       <use xlink:href="#m9350c36aa6" x="57.6" y="196.204212" style="stroke: #000000; stroke-width: 0.8"/>
      </g>
     </g>
     <g id="text_10">
      <!-- 400 -->
      <g transform="translate(31.5125 200.00343) scale(0.1 -0.1)">
       <use xlink:href="#DejaVuSans-34"/>
       <use xlink:href="#DejaVuSans-30" x="63.623047"/>
       <use xlink:href="#DejaVuSans-30" x="127.246094"/>
      </g>
     </g>
    </g>
    <g id="ytick_4">
     <g id="line2d_19">
      <path d="M 57.6 151.279421 
L 414.72 151.279421 
" clip-path="url(#p2223764749)" style="fill: none; stroke: #b0b0b0; stroke-width: 0.8; stroke-linecap: square"/>
     </g>
     <g id="line2d_20">
      <g>
       <use xlink:href="#m9350c36aa6" x="57.6" y="151.279421" style="stroke: #000000; stroke-width: 0.8"/>
      </g>
     </g>
     <g id="text_11">
      <!-- 600 -->
      <g transform="translate(31.5125 155.078639) scale(0.1 -0.1)">
       <use xlink:href="#DejaVuSans-36"/>
       <use xlink:href="#DejaVuSans-30" x="63.623047"/>
       <use xlink:href="#DejaVuSans-30" x="127.246094"/>
      </g>
     </g>
    </g>
    <g id="ytick_5">
     <g id="line2d_21">
      <path d="M 57.6 106.35463 
L 414.72 106.35463 
" clip-path="url(#p2223764749)" style="fill: none; stroke: #b0b0b0; stroke-width: 0.8; stroke-linecap: square"/>
     </g>
     <g id="line2d_22">
      <g>
       <use xlink:href="#m9350c36aa6" x="57.6" y="106.35463" style="stroke: #000000; stroke-width: 0.8"/>
      </g>
     </g>
     <g id="text_12">
      <!-- 800 -->
      <g transform="translate(31.5125 110.153848) scale(0.1 -0.1)">
       <use xlink:href="#DejaVuSans-38"/>
       <use xlink:href="#DejaVuSans-30" x="63.623047"/>
       <use xlink:href="#DejaVuSans-30" x="127.246094"/>
      </g>
     </g>
    </g>
    <g id="ytick_6">
     <g id="line2d_23">
      <path d="M 57.6 61.429838 
L 414.72 61.429838 
" clip-path="url(#p2223764749)" style="fill: none; stroke: #b0b0b0; stroke-width: 0.8; stroke-linecap: square"/>
     </g>
     <g id="line2d_24">
      <g>
       <use xlink:href="#m9350c36aa6" x="57.6" y="61.429838" style="stroke: #000000; stroke-width: 0.8"/>
      </g>
     </g>
     <g id="text_13">
      <!-- 1000 -->
      <g transform="translate(25.15 65.229057) scale(0.1 -0.1)">
       <use xlink:href="#DejaVuSans-31"/>
       <use xlink:href="#DejaVuSans-30" x="63.623047"/>
       <use xlink:href="#DejaVuSans-30" x="127.246094"/>
       <use xlink:href="#DejaVuSans-30" x="190.869141"/>
      </g>
     </g>
    </g>
    <g id="text_14">
     <!-- Y [CM] -->
     <g transform="translate(19.070312 190.878) rotate(-90) scale(0.1 -0.1)">
      <defs>
       <path id="DejaVuSans-59" d="M -13 4666 
L 666 4666 
L 1959 2747 
L 3244 4666 
L 3922 4666 
L 2272 2222 
L 2272 0 
L 1638 0 
L 1638 2222 
L -13 4666 
z
" transform="scale(0.015625)"/>
      </defs>
      <use xlink:href="#DejaVuSans-59"/>
      <use xlink:href="#DejaVuSans-20" x="61.083984"/>
      <use xlink:href="#DejaVuSans-5b" x="92.871094"/>
      <use xlink:href="#DejaVuSans-43" x="131.884766"/>
      <use xlink:href="#DejaVuSans-4d" x="201.708984"/>
      <use xlink:href="#DejaVuSans-5d" x="287.988281"/>
     </g>
    </g>
   </g>
   <g id="line2d_25">
    <path d="M 230.801624 281.561315 
L 230.801624 173.741816 
L 230.801624 61.429838 
L 388.400918 61.429838 
L 388.400918 173.741816 
L 388.400918 281.561315 
L 79.506302 281.561315 
" clip-path="url(#p2223764749)" style="fill: none; stroke: #1f77b4; stroke-width: 1.5; stroke-linecap: square"/>
   </g>
   <g id="line2d_26">
    <path d="M 73.832727 282.684435 
L 74.463124 282.459811 
L 101.570203 282.459811 
L 102.830997 282.235187 
L 118.590927 282.235187 
L 119.851721 282.010563 
L 151.37158 282.010563 
L 152.632374 281.785939 
L 220.400071 281.785939 
L 225.443248 279.988947 
L 225.758447 279.539699 
L 226.388844 279.315075 
L 227.019241 278.865827 
L 227.33444 278.416579 
L 227.964837 278.191955 
L 228.595234 277.29346 
L 229.225631 276.844212 
L 230.801624 274.597972 
L 231.116823 273.699476 
L 231.116823 273.250228 
L 231.432021 272.576357 
L 231.432021 272.127109 
L 231.74722 271.228613 
L 231.74722 268.083877 
L 232.062418 267.185382 
L 232.062418 264.040646 
L 231.74722 263.591398 
L 231.74722 256.403432 
L 231.432021 255.954184 
L 231.432021 248.766217 
L 231.116823 248.316969 
L 231.116823 238.658139 
L 230.801624 237.759643 
L 230.801624 226.079198 
L 230.486425 224.956078 
L 230.486425 216.869616 
L 230.171227 215.97112 
L 230.171227 203.841426 
L 229.856028 203.167554 
L 229.856028 192.610228 
L 229.54083 191.487109 
L 229.54083 178.458919 
L 229.856028 177.335799 
L 229.856028 176.886552 
L 230.171227 176.437304 
L 230.171227 173.96644 
L 230.486425 172.84332 
L 230.486425 163.633738 
L 230.171227 162.735242 
L 230.171227 143.417582 
L 229.856028 142.519086 
L 229.856028 91.754072 
L 230.171227 90.630953 
L 230.171227 66.371565 
L 230.486425 65.922318 
L 230.486425 65.47307 
L 231.116823 64.574574 
L 232.062418 62.552958 
L 232.692816 62.10371 
L 233.323213 61.205214 
L 233.638411 60.980591 
L 233.95361 60.531343 
L 234.899206 59.632847 
L 237.420794 57.835855 
L 238.051192 57.611231 
L 238.996787 56.937359 
L 239.627184 56.712735 
L 240.257582 56.263487 
L 245.300759 54.466496 
L 245.931156 54.466496 
L 248.137546 54.017248 
L 249.398341 53.792624 
L 253.180724 53.792624 
L 254.441518 53.568 
L 256.017511 53.792624 
L 260.115093 53.792624 
L 262.321483 54.017248 
L 263.582277 54.017248 
L 264.527873 54.241872 
L 265.788667 54.241872 
L 267.36466 54.466496 
L 270.201447 54.466496 
L 270.831845 54.69112 
L 273.038235 54.69112 
L 274.299029 54.915744 
L 275.875022 54.915744 
L 277.135816 55.140368 
L 279.342207 55.140368 
L 279.972604 55.364992 
L 282.809391 55.364992 
L 284.385384 55.589616 
L 285.646178 55.589616 
L 287.222171 55.81424 
L 290.058959 55.81424 
L 291.319753 56.038864 
L 292.895746 56.038864 
L 294.15654 56.263487 
L 296.993327 56.263487 
L 298.56932 56.488111 
L 299.830115 56.488111 
L 301.406108 56.712735 
L 304.242895 56.712735 
L 305.503689 56.937359 
L 308.340477 56.937359 
L 309.91647 57.161983 
L 312.753257 57.161983 
L 314.014051 57.386607 
L 315.590044 57.386607 
L 317.481236 57.611231 
L 319.687626 57.611231 
L 321.263619 57.835855 
L 322.524413 57.835855 
L 324.100406 58.060479 
L 325.991598 58.060479 
L 326.937193 58.285103 
L 329.773981 58.285103 
L 331.034775 58.509727 
L 332.295569 58.509727 
L 333.871562 58.734351 
L 335.132357 58.734351 
L 336.70835 58.958975 
L 339.545137 58.958975 
L 340.805931 59.183599 
L 342.381924 59.183599 
L 343.642718 59.408223 
L 345.218711 59.408223 
L 345.849109 59.632847 
L 348.055499 59.632847 
L 349.316293 59.857471 
L 350.892286 59.857471 
L 352.15308 60.082095 
L 354.989868 60.082095 
L 357.196258 60.306719 
L 357.826655 60.306719 
L 359.402648 60.531343 
L 361.609038 60.531343 
L 362.239435 60.755967 
L 363.500229 60.755967 
L 365.076222 60.980591 
L 367.91301 60.980591 
L 378.314563 61.654462 
L 379.260159 61.879086 
L 379.890556 61.879086 
L 383.357741 62.552958 
L 389.031315 64.574574 
L 391.552904 66.371565 
L 392.813698 67.045437 
L 393.128897 67.494685 
L 394.074492 68.168557 
L 394.70489 69.067053 
L 395.965684 70.414797 
L 396.596081 71.313292 
L 396.91128 72.211788 
L 397.856876 73.559532 
L 398.487273 76.030396 
L 398.487273 82.095242 
L 398.172074 83.218362 
L 398.172074 84.116858 
L 397.856876 85.239978 
L 397.856876 87.261593 
L 397.541677 88.160089 
L 397.541677 90.181705 
L 397.226478 90.855577 
L 397.226478 92.877192 
L 396.91128 93.32644 
L 396.91128 95.348056 
L 396.596081 96.246552 
L 396.596081 98.268167 
L 396.280883 99.391287 
L 396.280883 101.86215 
L 395.965684 102.311398 
L 395.965684 105.456134 
L 395.650485 106.35463 
L 395.650485 107.926997 
L 395.335287 108.376245 
L 395.335287 110.397861 
L 395.020088 111.520981 
L 395.020088 114.441092 
L 394.70489 115.564212 
L 394.70489 117.585827 
L 394.389691 118.484323 
L 394.389691 120.505939 
L 394.074492 121.629058 
L 394.074492 122.527554 
L 393.759294 123.650674 
L 393.759294 125.67229 
L 393.444095 126.570786 
L 393.444095 128.592401 
L 393.128897 129.266273 
L 393.128897 131.737136 
L 392.813698 132.635632 
L 392.813698 134.657248 
L 392.4985 135.780368 
L 392.4985 136.678864 
L 392.183301 137.801983 
L 392.183301 139.823599 
L 391.868102 140.722095 
L 391.868102 142.74371 
L 391.552904 143.86683 
L 391.552904 145.439198 
L 391.237705 145.888446 
L 391.237705 147.910061 
L 390.922507 148.808557 
L 390.922507 150.830173 
L 390.607308 151.953292 
L 390.607308 152.851788 
L 390.292109 153.974908 
L 390.292109 155.996524 
L 389.976911 156.895019 
L 389.976911 158.467387 
L 389.661712 159.590507 
L 389.661712 162.06137 
L 389.346514 162.959866 
L 389.346514 164.082986 
L 389.031315 164.981482 
L 389.031315 166.104602 
L 388.716117 167.003097 
L 388.716117 168.126217 
L 387.770521 175.763432 
L 387.770521 176.21268 
L 388.085719 177.111175 
L 388.085719 180.255911 
L 388.400918 181.154407 
L 388.400918 239.556635 
L 388.716117 240.455131 
L 388.716117 259.772791 
L 388.400918 260.895911 
L 388.400918 284.032178 
L 387.455322 286.053794 
L 386.509726 287.176914 
L 385.879329 288.075409 
L 384.618535 289.198529 
L 383.988138 289.647777 
L 383.672939 290.097025 
L 382.096946 291.220145 
L 381.466549 291.444769 
L 381.15135 291.894017 
L 379.890556 292.343265 
L 377.999365 293.24176 
L 374.216981 294.589504 
L 373.586584 294.589504 
L 372.010591 295.038752 
L 370.749797 295.038752 
L 370.1194 295.263376 
L 367.91301 295.263376 
L 367.282613 295.488 
L 363.815428 295.488 
L 362.869832 295.263376 
L 358.772251 295.263376 
L 356.565861 295.038752 
L 354.35947 295.038752 
L 353.729073 294.814128 
L 350.261889 294.814128 
L 348.685896 294.589504 
L 345.849109 294.589504 
L 344.588314 294.36488 
L 341.751527 294.36488 
L 340.175534 294.140256 
L 336.077952 294.140256 
L 334.501959 293.915632 
L 330.404378 293.915632 
L 328.828385 293.691008 
L 324.730803 293.691008 
L 323.15481 293.466384 
L 319.057229 293.466384 
L 317.481236 293.24176 
L 314.644448 293.24176 
L 313.383654 293.017136 
L 308.970874 293.017136 
L 307.710079 292.792513 
L 304.873292 292.792513 
L 303.297299 292.567889 
L 299.199718 292.567889 
L 297.623725 292.343265 
L 291.95015 292.343265 
L 290.374157 292.118641 
L 286.276575 292.118641 
L 284.700583 291.894017 
L 281.863795 291.894017 
L 280.603001 291.669393 
L 276.190221 291.669393 
L 274.929426 291.444769 
L 270.516646 291.444769 
L 269.255852 291.220145 
L 265.788667 291.220145 
L 264.212674 290.995521 
L 261.375887 290.995521 
L 260.115093 290.770897 
L 255.702312 290.770897 
L 254.441518 290.546273 
L 251.604731 290.546273 
L 250.028738 290.321649 
L 245.931156 290.321649 
L 244.355163 290.097025 
L 241.518376 290.097025 
L 240.257582 289.872401 
L 235.844801 289.872401 
L 234.584007 289.647777 
L 231.74722 289.647777 
L 230.171227 289.423153 
L 227.33444 289.423153 
L 226.073645 289.198529 
L 221.660865 289.198529 
L 220.400071 288.973905 
L 215.98729 288.973905 
L 214.411297 288.749281 
L 210.944113 288.749281 
L 209.683319 288.524657 
L 205.270538 288.524657 
L 204.009744 288.300033 
L 201.172957 288.300033 
L 198.966567 288.075409 
L 196.129779 288.075409 
L 194.553786 287.850786 
L 190.456205 287.850786 
L 188.880212 287.626162 
L 186.043425 287.626162 
L 184.78263 287.401538 
L 181.945843 287.401538 
L 180.36985 287.176914 
L 176.902665 287.176914 
L 175.641871 286.95229 
L 171.859488 286.95229 
L 170.598694 286.727666 
L 167.761906 286.727666 
L 166.185914 286.503042 
L 162.088332 286.503042 
L 160.512339 286.278418 
L 158.621147 286.278418 
L 156.414757 286.053794 
L 147.904395 286.053794 
L 146.328402 285.82917 
L 143.491615 285.82917 
L 142.230821 285.604546 
L 137.818041 285.604546 
L 136.557246 285.379922 
L 133.720459 285.379922 
L 132.144466 285.155298 
L 128.046884 285.155298 
L 126.470891 284.930674 
L 125.210097 284.930674 
L 123.003707 284.70605 
L 119.536523 284.70605 
L 117.96053 284.481426 
L 113.862948 284.481426 
L 112.286955 284.256802 
L 109.450168 284.256802 
L 108.189373 284.032178 
L 104.40699 284.032178 
L 103.146196 283.807554 
L 100.939806 283.807554 
L 99.679011 283.58293 
L 96.842224 283.58293 
L 95.266231 283.358306 
L 92.429444 283.358306 
L 91.16865 283.133682 
L 88.331862 283.133682 
L 86.125472 282.909058 
L 83.288685 282.909058 
L 83.288685 282.909058 
" clip-path="url(#p2223764749)" style="fill: none; stroke: #ff7f0e; stroke-width: 1.5; stroke-linecap: square"/>
   </g>
   <g id="patch_3">
    <path d="M 57.6 307.584 
L 57.6 41.472 
" style="fill: none; stroke: #000000; stroke-width: 0.8; stroke-linejoin: miter; stroke-linecap: square"/>
   </g>
   <g id="patch_4">
    <path d="M 414.72 307.584 
L 414.72 41.472 
" style="fill: none; stroke: #000000; stroke-width: 0.8; stroke-linejoin: miter; stroke-linecap: square"/>
   </g>
   <g id="patch_5">
    <path d="M 57.6 307.584 
L 414.72 307.584 
" style="fill: none; stroke: #000000; stroke-width: 0.8; stroke-linejoin: miter; stroke-linecap: square"/>
   </g>
   <g id="patch_6">
    <path d="M 57.6 41.472 
L 414.72 41.472 
" style="fill: none; stroke: #000000; stroke-width: 0.8; stroke-linejoin: miter; stroke-linecap: square"/>
   </g>
   <g id="legend_1">
    <g id="patch_7">
     <path d="M 64.6 79.22825 
L 197.94375 79.22825 
Q 199.94375 79.22825 199.94375 77.22825 
L 199.94375 48.472 
Q 199.94375 46.472 197.94375 46.472 
L 64.6 46.472 
Q 62.6 46.472 62.6 48.472 
L 62.6 77.22825 
Q 62.6 79.22825 64.6 79.22825 
z
" style="fill: #ffffff; opacity: 0.8; stroke: #cccccc; stroke-linejoin: miter"/>
    </g>
    <g id="line2d_27">
     <path d="M 66.6 54.570438 
L 76.6 54.570438 
L 86.6 54.570438 
" style="fill: none; stroke: #1f77b4; stroke-width: 1.5; stroke-linecap: square"/>
    </g>
    <g id="text_15">
     <!-- Pontos desejados -->
     <g transform="translate(94.6 58.070438) scale(0.1 -0.1)">
      <defs>
       <path id="DejaVuSans-50" d="M 1259 4147 
L 1259 2394 
L 2053 2394 
Q 2494 2394 2734 2622 
Q 2975 2850 2975 3272 
Q 2975 3691 2734 3919 
Q 2494 4147 2053 4147 
L 1259 4147 
z
M 628 4666 
L 2053 4666 
Q 2838 4666 3239 4311 
Q 3641 3956 3641 3272 
Q 3641 2581 3239 2228 
Q 2838 1875 2053 1875 
L 1259 1875 
L 1259 0 
L 628 0 
L 628 4666 
z
" transform="scale(0.015625)"/>
       <path id="DejaVuSans-6f" d="M 1959 3097 
Q 1497 3097 1228 2736 
Q 959 2375 959 1747 
Q 959 1119 1226 758 
Q 1494 397 1959 397 
Q 2419 397 2687 759 
Q 2956 1122 2956 1747 
Q 2956 2369 2687 2733 
Q 2419 3097 1959 3097 
z
M 1959 3584 
Q 2709 3584 3137 3096 
Q 3566 2609 3566 1747 
Q 3566 888 3137 398 
Q 2709 -91 1959 -91 
Q 1206 -91 779 398 
Q 353 888 353 1747 
Q 353 2609 779 3096 
Q 1206 3584 1959 3584 
z
" transform="scale(0.015625)"/>
       <path id="DejaVuSans-6e" d="M 3513 2113 
L 3513 0 
L 2938 0 
L 2938 2094 
Q 2938 2591 2744 2837 
Q 2550 3084 2163 3084 
Q 1697 3084 1428 2787 
Q 1159 2491 1159 1978 
L 1159 0 
L 581 0 
L 581 3500 
L 1159 3500 
L 1159 2956 
Q 1366 3272 1645 3428 
Q 1925 3584 2291 3584 
Q 2894 3584 3203 3211 
Q 3513 2838 3513 2113 
z
" transform="scale(0.015625)"/>
       <path id="DejaVuSans-74" d="M 1172 4494 
L 1172 3500 
L 2356 3500 
L 2356 3053 
L 1172 3053 
L 1172 1153 
Q 1172 725 1289 603 
Q 1406 481 1766 481 
L 2356 481 
L 2356 0 
L 1766 0 
Q 1100 0 847 248 
Q 594 497 594 1153 
L 594 3053 
L 172 3053 
L 172 3500 
L 594 3500 
L 594 4494 
L 1172 4494 
z
" transform="scale(0.015625)"/>
       <path id="DejaVuSans-73" d="M 2834 3397 
L 2834 2853 
Q 2591 2978 2328 3040 
Q 2066 3103 1784 3103 
Q 1356 3103 1142 2972 
Q 928 2841 928 2578 
Q 928 2378 1081 2264 
Q 1234 2150 1697 2047 
L 1894 2003 
Q 2506 1872 2764 1633 
Q 3022 1394 3022 966 
Q 3022 478 2636 193 
Q 2250 -91 1575 -91 
Q 1294 -91 989 -36 
Q 684 19 347 128 
L 347 722 
Q 666 556 975 473 
Q 1284 391 1588 391 
Q 1994 391 2212 530 
Q 2431 669 2431 922 
Q 2431 1156 2273 1281 
Q 2116 1406 1581 1522 
L 1381 1569 
Q 847 1681 609 1914 
Q 372 2147 372 2553 
Q 372 3047 722 3315 
Q 1072 3584 1716 3584 
Q 2034 3584 2315 3537 
Q 2597 3491 2834 3397 
z
" transform="scale(0.015625)"/>
       <path id="DejaVuSans-64" d="M 2906 2969 
L 2906 4863 
L 3481 4863 
L 3481 0 
L 2906 0 
L 2906 525 
Q 2725 213 2448 61 
Q 2172 -91 1784 -91 
Q 1150 -91 751 415 
Q 353 922 353 1747 
Q 353 2572 751 3078 
Q 1150 3584 1784 3584 
Q 2172 3584 2448 3432 
Q 2725 3281 2906 2969 
z
M 947 1747 
Q 947 1113 1208 752 
Q 1469 391 1925 391 
Q 2381 391 2643 752 
Q 2906 1113 2906 1747 
Q 2906 2381 2643 2742 
Q 2381 3103 1925 3103 
Q 1469 3103 1208 2742 
Q 947 2381 947 1747 
z
" transform="scale(0.015625)"/>
       <path id="DejaVuSans-65" d="M 3597 1894 
L 3597 1613 
L 953 1613 
Q 991 1019 1311 708 
Q 1631 397 2203 397 
Q 2534 397 2845 478 
Q 3156 559 3463 722 
L 3463 178 
Q 3153 47 2828 -22 
Q 2503 -91 2169 -91 
Q 1331 -91 842 396 
Q 353 884 353 1716 
Q 353 2575 817 3079 
Q 1281 3584 2069 3584 
Q 2775 3584 3186 3129 
Q 3597 2675 3597 1894 
z
M 3022 2063 
Q 3016 2534 2758 2815 
Q 2500 3097 2075 3097 
Q 1594 3097 1305 2825 
Q 1016 2553 972 2059 
L 3022 2063 
z
" transform="scale(0.015625)"/>
       <path id="DejaVuSans-6a" d="M 603 3500 
L 1178 3500 
L 1178 -63 
Q 1178 -731 923 -1031 
Q 669 -1331 103 -1331 
L -116 -1331 
L -116 -844 
L 38 -844 
Q 366 -844 484 -692 
Q 603 -541 603 -63 
L 603 3500 
z
M 603 4863 
L 1178 4863 
L 1178 4134 
L 603 4134 
L 603 4863 
z
" transform="scale(0.015625)"/>
       <path id="DejaVuSans-61" d="M 2194 1759 
Q 1497 1759 1228 1600 
Q 959 1441 959 1056 
Q 959 750 1161 570 
Q 1363 391 1709 391 
Q 2188 391 2477 730 
Q 2766 1069 2766 1631 
L 2766 1759 
L 2194 1759 
z
M 3341 1997 
L 3341 0 
L 2766 0 
L 2766 531 
Q 2569 213 2275 61 
Q 1981 -91 1556 -91 
Q 1019 -91 701 211 
Q 384 513 384 1019 
Q 384 1609 779 1909 
Q 1175 2209 1959 2209 
L 2766 2209 
L 2766 2266 
Q 2766 2663 2505 2880 
Q 2244 3097 1772 3097 
Q 1472 3097 1187 3025 
Q 903 2953 641 2809 
L 641 3341 
Q 956 3463 1253 3523 
Q 1550 3584 1831 3584 
Q 2591 3584 2966 3190 
Q 3341 2797 3341 1997 
z
" transform="scale(0.015625)"/>
      </defs>
      <use xlink:href="#DejaVuSans-50"/>
      <use xlink:href="#DejaVuSans-6f" x="56.677734"/>
      <use xlink:href="#DejaVuSans-6e" x="117.859375"/>
      <use xlink:href="#DejaVuSans-74" x="181.238281"/>
      <use xlink:href="#DejaVuSans-6f" x="220.447266"/>
      <use xlink:href="#DejaVuSans-73" x="281.628906"/>
      <use xlink:href="#DejaVuSans-20" x="333.728516"/>
      <use xlink:href="#DejaVuSans-64" x="365.515625"/>
      <use xlink:href="#DejaVuSans-65" x="428.992188"/>
      <use xlink:href="#DejaVuSans-73" x="490.515625"/>
      <use xlink:href="#DejaVuSans-65" x="542.615234"/>
      <use xlink:href="#DejaVuSans-6a" x="604.138672"/>
      <use xlink:href="#DejaVuSans-61" x="631.921875"/>
      <use xlink:href="#DejaVuSans-64" x="693.201172"/>
      <use xlink:href="#DejaVuSans-6f" x="756.677734"/>
      <use xlink:href="#DejaVuSans-73" x="817.859375"/>
     </g>
    </g>
    <g id="line2d_28">
     <path d="M 66.6 69.648563 
L 76.6 69.648563 
L 86.6 69.648563 
" style="fill: none; stroke: #ff7f0e; stroke-width: 1.5; stroke-linecap: square"/>
    </g>
    <g id="text_16">
     <!-- Trajetória percorrida -->
     <g transform="translate(94.6 73.148563) scale(0.1 -0.1)">
      <defs>
       <path id="DejaVuSans-54" d="M -19 4666 
L 3928 4666 
L 3928 4134 
L 2272 4134 
L 2272 0 
L 1638 0 
L 1638 4134 
L -19 4134 
L -19 4666 
z
" transform="scale(0.015625)"/>
       <path id="DejaVuSans-72" d="M 2631 2963 
Q 2534 3019 2420 3045 
Q 2306 3072 2169 3072 
Q 1681 3072 1420 2755 
Q 1159 2438 1159 1844 
L 1159 0 
L 581 0 
L 581 3500 
L 1159 3500 
L 1159 2956 
Q 1341 3275 1631 3429 
Q 1922 3584 2338 3584 
Q 2397 3584 2469 3576 
Q 2541 3569 2628 3553 
L 2631 2963 
z
" transform="scale(0.015625)"/>
       <path id="DejaVuSans-f3" d="M 1959 3097 
Q 1497 3097 1228 2736 
Q 959 2375 959 1747 
Q 959 1119 1226 758 
Q 1494 397 1959 397 
Q 2419 397 2687 759 
Q 2956 1122 2956 1747 
Q 2956 2369 2687 2733 
Q 2419 3097 1959 3097 
z
M 1959 3584 
Q 2709 3584 3137 3096 
Q 3566 2609 3566 1747 
Q 3566 888 3137 398 
Q 2709 -91 1959 -91 
Q 1206 -91 779 398 
Q 353 888 353 1747 
Q 353 2609 779 3096 
Q 1206 3584 1959 3584 
z
M 2394 5119 
L 3016 5119 
L 1998 3944 
L 1519 3944 
L 2394 5119 
z
" transform="scale(0.015625)"/>
       <path id="DejaVuSans-69" d="M 603 3500 
L 1178 3500 
L 1178 0 
L 603 0 
L 603 3500 
z
M 603 4863 
L 1178 4863 
L 1178 4134 
L 603 4134 
L 603 4863 
z
" transform="scale(0.015625)"/>
       <path id="DejaVuSans-70" d="M 1159 525 
L 1159 -1331 
L 581 -1331 
L 581 3500 
L 1159 3500 
L 1159 2969 
Q 1341 3281 1617 3432 
Q 1894 3584 2278 3584 
Q 2916 3584 3314 3078 
Q 3713 2572 3713 1747 
Q 3713 922 3314 415 
Q 2916 -91 2278 -91 
Q 1894 -91 1617 61 
Q 1341 213 1159 525 
z
M 3116 1747 
Q 3116 2381 2855 2742 
Q 2594 3103 2138 3103 
Q 1681 3103 1420 2742 
Q 1159 2381 1159 1747 
Q 1159 1113 1420 752 
Q 1681 391 2138 391 
Q 2594 391 2855 752 
Q 3116 1113 3116 1747 
z
" transform="scale(0.015625)"/>
       <path id="DejaVuSans-63" d="M 3122 3366 
L 3122 2828 
Q 2878 2963 2633 3030 
Q 2388 3097 2138 3097 
Q 1578 3097 1268 2742 
Q 959 2388 959 1747 
Q 959 1106 1268 751 
Q 1578 397 2138 397 
Q 2388 397 2633 464 
Q 2878 531 3122 666 
L 3122 134 
Q 2881 22 2623 -34 
Q 2366 -91 2075 -91 
Q 1284 -91 818 406 
Q 353 903 353 1747 
Q 353 2603 823 3093 
Q 1294 3584 2113 3584 
Q 2378 3584 2631 3529 
Q 2884 3475 3122 3366 
z
" transform="scale(0.015625)"/>
      </defs>
      <use xlink:href="#DejaVuSans-54"/>
      <use xlink:href="#DejaVuSans-72" x="46.333984"/>
      <use xlink:href="#DejaVuSans-61" x="87.447266"/>
      <use xlink:href="#DejaVuSans-6a" x="148.726562"/>
      <use xlink:href="#DejaVuSans-65" x="176.509766"/>
      <use xlink:href="#DejaVuSans-74" x="238.033203"/>
      <use xlink:href="#DejaVuSans-f3" x="277.242188"/>
      <use xlink:href="#DejaVuSans-72" x="338.423828"/>
      <use xlink:href="#DejaVuSans-69" x="379.537109"/>
      <use xlink:href="#DejaVuSans-61" x="407.320312"/>
      <use xlink:href="#DejaVuSans-20" x="468.599609"/>
      <use xlink:href="#DejaVuSans-70" x="500.386719"/>
      <use xlink:href="#DejaVuSans-65" x="563.863281"/>
      <use xlink:href="#DejaVuSans-72" x="625.386719"/>
      <use xlink:href="#DejaVuSans-63" x="664.25"/>
      <use xlink:href="#DejaVuSans-6f" x="719.230469"/>
      <use xlink:href="#DejaVuSans-72" x="780.412109"/>
      <use xlink:href="#DejaVuSans-72" x="819.775391"/>
      <use xlink:href="#DejaVuSans-69" x="860.888672"/>
      <use xlink:href="#DejaVuSans-64" x="888.671875"/>
      <use xlink:href="#DejaVuSans-61" x="952.148438"/>
     </g>
    </g>
   </g>
  </g>
 </g>
 <defs>
  <clipPath id="p2223764749">
   <rect x="57.6" y="41.472" width="357.12" height="266.112"/>
  </clipPath>
 </defs>
</svg>
